<svg xmlns="http://www.w3.org/2000/svg" viewBox="0 0 50 16" width="50" height="16"><path d="M4.6 11.7h2.8V4.3H4.6v7.4zM18.9 4.3h-2.6l-3.2 7.4h2.9l.5-1.3h2.9l.5 1.3h2.9l-3-7.4zm-1.4 4.9l.8-2.2.8 2.2h-1.6zM26.2 4.3h-2.9v7.4h2.9v-1.5h1.2c1.8 0 2.9-1.2 2.9-3s-1.1-2.9-2.9-2.9h-1.2V4.3zm1.2 4.4h-1.2V5.8h1.2c.8 0 1.3.5 1.3 1.5s-.5 1.4-1.3 1.4zM38.6 4.3h-2.9v7.4h2.9v-1.5h1.2c1.8 0 2.9-1.2 2.9-3s-1.1-2.9-2.9-2.9h-1.2V4.3zm1.2 4.4h-1.2V5.8h1.2c.8 0 1.3.5 1.3 1.5s-.5 1.4-1.3 1.4zM49.5 6.5c0-1.4-1-2.2-2.8-2.2-1.5 0-2.5.6-2.9 1l.8 1c.3-.3.8-.6 1.4-.6.8 0 1.2.3 1.2.8s-.4.7-1.3.9l-1.7.4c-1.5.3-2.4 1.1-2.4 2.4s1 2.2 2.8 2.2c1.5 0 2.6-.6 3-1l-.9-1c-.3.3-.9.6-1.5.6-.8 0-1.2-.3-1.2-.8s.4-.7 1.4-.9l1.7-.4c1.5-.3 2.3-1.1 2.3-2.3z" fill="#00A651"/><path d="M0 0h50v16H0z" fill="none"/></svg>
