<svg xmlns="http://www.w3.org/2000/svg" viewBox="0 0 38 12" width="38" height="12"><path d="M21.1 8.3h2.5l1.8 3.2h2.5l-2.8-4.4.1-4.3h-2.4l-2.8 8.7zm-5.8-4c0-.8.5-1.2 1.4-1.2.8 0 1.2.3 1.5.5l.6-1.5c-.4-.3-1.1-.6-2.1-.6-2.2 0-3.6 1.3-3.6 3.3 0 1.8 1.1 2.6 2.1 3 .9.4 1.2.6 1.2 1s-.5.9-1.4.9c-1 0-1.6-.3-1.9-.5l-.6 1.5c.5.3 1.3.6 2.5.6 2.4 0 3.8-1.3 3.8-3.4 0-1.9-1.1-2.7-2.2-3.1-.8-.4-1.1-.6-1.1-1zm-8.7.1L4.2 0h2.6l1.5 5.8L9.8 0h2.5l-2.4 8.7H7.3L4.6 0H2.2l2.4 8.7H2.3L0 0h2.6l2.4 8.4z" fill="#00579E"/><path d="M38 8.3h-2.3l-1-3.4c-.2-.7-.4-1.2-.5-1.5h-.1c-.1.3-.3.8-.5 1.5l-1 3.4H30l2.4-8.7h2.6l2.9 8.7z" fill="#F7A600"/></svg>
